<?xml version="1.0" encoding="utf-8"?>
<!-- Generator: Adobe Illustrator 17.1.0, SVG Export Plug-In . SVG Version: 6.00 Build 0)  -->
<!DOCTYPE svg PUBLIC "-//W3C//DTD SVG 1.1//EN" "http://www.w3.org/Graphics/SVG/1.1/DTD/svg11.dtd">
<svg version="1.1" id="Layer_1" xmlns="http://www.w3.org/2000/svg" xmlns:xlink="http://www.w3.org/1999/xlink" x="0px" y="0px"
	 viewBox="0 0 200 200" enable-background="new 0 0 200 200" xml:space="preserve">
<g>
	<polygon fill="#FFFFFF" points="181.1,84.2 96.9,168 13.2,83.8 97.4,0 	"/>
	<polygon fill="#414042" points="64.1,42.3 60.2,46.2 115.9,113.7 78,113.6 93.8,95.5 88,88.4 59.6,119.8 62.9,123.3 132,123.5 
		135.9,119.6 78,52.2 117.6,52.3 101.5,70.6 107.5,77.9 135.2,46.3 131.3,42.5 	"/>
</g>
<g enable-background="new    ">
	<path fill="#00A1DF" d="M4.7,155.1v-1.6c1.4,0.5,2.9,0.7,4.5,0.7c2.3,0,3.4-0.8,3.4-2.5c0-1.4-0.8-2.1-2.5-2.1H8.3
		c-2.8,0-4.1-1.2-4.1-3.6c0-2.5,1.8-3.8,5.3-3.8c1.5,0,3,0.2,4.3,0.6v1.6c-1.3-0.5-2.7-0.7-4.3-0.7c-2.4,0-3.6,0.8-3.6,2.4
		c0,1.4,0.8,2.1,2.4,2.1H10c2.8,0,4.2,1.2,4.2,3.6c0,2.6-1.7,3.9-5.1,3.9C7.5,155.6,6,155.5,4.7,155.1z"/>
	<path fill="#00A1DF" d="M25.6,142.4v1.4h-4.1v11.8h-1.7v-11.8h-4.1v-1.4H25.6z"/>
	<path fill="#00A1DF" d="M36.2,142.4v1.4h-6.9v4.4h6.6v1.4h-6.6v4.6h7v1.4h-8.7v-13.2H36.2z"/>
	<path fill="#00A1DF" d="M50.7,142.4l-5.6,13.2h-1.9l-5.6-13.2h1.8l4.8,11.4l4.7-11.4H50.7z"/>
	<path fill="#00A1DF" d="M61.1,142.4v1.4h-6.9v4.4h6.6v1.4h-6.6v4.6h7v1.4h-8.7v-13.2H61.1z"/>
	<path fill="#00A1DF" d="M63.8,155.5v-13.2h1.7l8.1,10.6v-10.6h1.6v13.2h-1.7l-8.1-10.7v10.7H63.8z"/>
</g>
<g enable-background="new    ">
	<path fill="#414042" d="M91.3,142.4v11.8h6.9v1.4h-8.6v-13.2H91.3z"/>
	<path fill="#414042" d="M100.6,155.5h-1.8l5.6-13.2h1.9l5.6,13.2H110l-1.7-4.1H104l0.5-1.4h3.3l-2.5-6L100.6,155.5z"/>
	<path fill="#414042" d="M113.7,155.5v-13.2h1.7l8.1,10.6v-10.6h1.6v13.2h-1.7l-8.1-10.7v10.7H113.7z"/>
	<path fill="#414042" d="M138.2,155c-1.1,0.4-2.2,0.6-3.4,0.6c-4.8,0-7.2-2.3-7.2-6.9c0-4.3,2.3-6.5,6.9-6.5c1.3,0,2.5,0.2,3.7,0.6
		v1.5c-1.1-0.4-2.3-0.6-3.5-0.6c-3.6,0-5.4,1.7-5.4,5.1c0,3.7,1.8,5.5,5.3,5.5c0.6,0,1.2-0.1,1.9-0.2v-4.5h1.7V155z"/>
	<path fill="#414042" d="M149.6,142.4v1.4h-6.9v4.4h6.6v1.4h-6.6v6H141v-13.2H149.6z"/>
	<path fill="#414042" d="M151.2,149c0-4.5,2.2-6.7,6.6-6.7c4.3,0,6.5,2.2,6.5,6.7c0,4.4-2.2,6.7-6.5,6.7
		C153.4,155.6,151.2,153.4,151.2,149z M157.8,154.3c3.1,0,4.7-1.8,4.7-5.3c0-3.5-1.6-5.3-4.7-5.3c-3.2,0-4.8,1.8-4.8,5.3
		C152.9,152.5,154.6,154.3,157.8,154.3z"/>
	<path fill="#414042" d="M166.9,155.5v-13.2h5.6c2.5,0,3.8,1.1,3.8,3.2c0,1.7-1.2,3-3.7,3.8l4.5,6.2h-2.2l-4.2-5.9v-1.1
		c2.5-0.4,3.8-1.4,3.8-2.9c0-1.2-0.7-1.8-2.1-1.8h-3.8v11.8H166.9z"/>
	<path fill="#414042" d="M179,155.5v-13.2h4.8c4.4,0,6.5,2.1,6.5,6.2c0,4.6-2.2,6.9-6.5,6.9H179z M183.7,154.2
		c3.2,0,4.8-1.9,4.8-5.6c0-3.2-1.6-4.8-4.8-4.8h-3.1v10.4H183.7z"/>
</g>
</svg>
